<svg version="1.1" id="Layer_1" xmlns="http://www.w3.org/2000/svg" xmlns:xlink="http://www.w3.org/1999/xlink" x="0px" y="0px"
	 width="100%" viewBox="0 0 773 440" enable-background="new 0 0 773 440" xml:space="preserve">
<path fill="black" opacity="1.000000" stroke="none" 
	d="
M449.000000,441.000000 
	C299.333344,441.000000 150.166672,441.000000 1.000000,441.000000 
	C1.000000,294.333344 1.000000,147.666672 1.000000,1.000000 
	C258.666656,1.000000 516.333313,1.000000 774.000000,1.000000 
	C774.000000,147.666672 774.000000,294.333344 774.000000,441.000000 
	C665.833313,441.000000 557.666687,441.000000 449.000000,441.000000 
M447.264374,258.919800 
	C447.325684,264.617401 447.386963,270.315002 447.264740,276.919220 
	C447.006592,284.624939 446.888000,292.300140 452.381897,299.436096 
	C460.615387,314.810089 481.761078,322.227142 497.990051,314.408356 
	C507.459015,309.846405 516.025818,303.411957 525.696289,297.839264 
	C537.217163,290.594482 548.738037,283.349731 560.947815,276.041565 
	C563.757141,274.361145 566.624756,272.770020 569.364136,270.982330 
	C575.787781,266.790283 582.150085,262.504120 589.219543,258.246521 
	C590.796692,257.350769 592.453125,256.569397 593.937622,255.540009 
	C601.343323,250.404648 608.703796,245.204117 616.746643,239.892853 
	C619.868225,234.269989 622.989807,228.647125 626.366150,222.251923 
	C626.024475,216.139008 625.682861,210.026077 625.321472,203.137314 
	C622.698181,195.654831 618.754272,189.105103 612.091431,184.493958 
	C608.919495,182.298782 605.453979,181.438400 602.724121,184.706833 
	C600.167419,187.768005 601.392517,190.670563 604.146667,193.428589 
	C607.484680,196.771179 610.361450,200.574295 613.680481,204.950058 
	C616.156982,210.898209 616.505920,216.909439 613.824158,223.587326 
	C609.778870,228.178207 605.733521,232.769073 600.988098,237.575592 
	C591.640442,243.326218 582.292847,249.076843 572.280884,255.076294 
	C562.517334,261.378662 552.753784,267.681061 542.280823,274.058167 
	C531.753235,280.650787 521.225586,287.243439 510.018280,293.920502 
	C504.460724,297.162964 498.965790,300.519440 493.327301,303.614441 
	C488.131927,306.466217 482.355255,307.324280 477.100922,304.617004 
	C472.118225,302.049713 467.789886,298.212402 462.999268,294.199768 
	C461.504181,288.137177 460.009094,282.074615 458.719055,275.093933 
	C458.648987,269.398621 458.578918,263.703278 458.712372,257.089233 
	C458.712372,250.765793 458.712372,244.442337 458.712372,237.413803 
	C456.097107,239.398605 454.504547,241.597641 452.683380,241.806915 
	C446.809418,242.481949 446.787781,246.212112 447.154327,250.549072 
	C447.363495,253.024353 447.360352,255.517593 447.264374,258.919800 
M555.071106,149.222366 
	C553.575500,148.253281 552.112915,147.228012 550.578369,146.325104 
	C544.723633,142.880249 538.845703,139.474869 532.394165,135.680740 
	C524.439575,130.469070 516.333313,125.471985 508.572937,119.985641 
	C500.753479,114.457542 492.325439,110.614708 482.726593,111.286942 
	C466.585999,112.417313 454.921600,120.197258 449.148834,136.793930 
	C448.844513,145.847687 448.540192,154.901459 448.036316,164.880600 
	C448.015686,169.535172 447.890442,174.192932 448.033081,178.842499 
	C448.080811,180.398026 448.385284,182.283707 449.311676,183.410873 
	C452.086884,186.787552 455.227417,189.863953 458.562714,193.416977 
	C458.562714,183.357803 458.562714,173.643585 458.733643,163.019226 
	C459.481079,154.343582 460.228546,145.667923 461.351562,136.430557 
	C461.908905,135.849899 462.553101,135.330322 463.010712,134.679535 
	C471.136902,123.122459 484.668243,119.349602 496.834869,126.910545 
	C504.123840,131.440262 511.564545,135.725815 519.393555,140.602066 
	C525.791687,144.450226 532.189758,148.298386 538.932678,152.753021 
	C545.545166,156.853790 552.112671,161.029724 558.790588,165.021027 
	C561.767822,166.800491 564.849731,167.119186 567.083984,163.717606 
	C569.243103,160.430511 568.043396,157.480423 565.286194,155.468201 
	C562.251831,153.253723 558.778748,151.640381 555.071106,149.222366 
M339.835327,226.342041 
	C346.632690,215.344116 343.179871,205.142136 330.672424,200.484756 
	C323.992981,197.997513 316.979797,196.420685 310.184784,194.224045 
	C306.182861,192.930344 302.975281,190.757919 303.149658,185.764465 
	C303.324860,180.747116 306.564362,178.302460 310.694824,176.920624 
	C316.785034,174.883179 322.871582,175.387497 328.682281,178.152466 
	C331.073883,179.290466 333.217255,181.078918 335.697723,181.854141 
	C337.233368,182.334076 340.189575,182.029190 340.730621,181.071945 
	C341.597229,179.538742 341.189728,177.142258 340.902374,175.171677 
	C340.790253,174.402939 339.589844,173.742661 338.809479,173.129227 
	C328.896973,165.337204 310.483704,164.504959 300.217743,171.628632 
	C294.731323,175.435699 291.439941,180.716934 291.794525,187.680008 
	C292.162933,194.914337 295.918060,199.860229 302.601624,202.433884 
	C306.316162,203.864273 310.193970,204.871780 314.001343,206.059708 
	C318.284668,207.396133 322.749207,208.324982 326.813599,210.147690 
	C332.352264,212.631577 333.235535,218.813522 328.627167,222.745529 
	C326.619843,224.458237 323.722504,225.733276 321.102875,226.010071 
	C313.042755,226.861694 305.249664,226.130890 298.158752,221.248886 
	C296.561005,220.148849 293.463623,221.226929 291.056610,221.302307 
	C291.641083,223.841660 291.356750,227.549484 292.949036,228.733444 
	C304.520264,237.337219 328.996643,239.826019 339.835327,226.342041 
M269.082184,233.041656 
	C271.486450,233.600510 274.271606,235.146469 276.176605,234.411392 
	C277.751007,233.803894 279.121765,230.511536 279.148956,228.390427 
	C279.379181,210.434128 279.286530,192.473618 279.265625,174.514389 
	C279.264282,173.361450 279.489227,171.761261 278.854828,171.143539 
	C277.235382,169.566650 275.233063,167.492096 273.300415,167.401718 
	C271.671722,167.325577 269.379028,169.446442 268.394562,171.173126 
	C267.515289,172.715271 267.948029,175.047699 267.933228,177.032410 
	C267.891968,182.567001 267.918884,188.102081 267.918884,194.281036 
	C257.630981,186.896072 251.091293,185.702316 243.661041,189.343155 
	C232.354416,194.883408 228.177399,213.634171 235.556717,225.723740 
	C242.782501,237.561768 255.259384,238.907928 267.145935,228.841644 
	C267.713531,230.060516 268.239075,231.189102 269.082184,233.041656 
M354.006165,244.252151 
	C354.096069,250.349869 355.746735,252.842972 359.756775,252.937637 
	C364.060303,253.039215 365.727081,250.577423 365.743500,244.055099 
	C365.755371,239.346924 365.745789,234.638687 365.745789,228.956589 
	C367.416809,230.191071 368.063934,230.624313 368.661713,231.117416 
	C378.876801,239.543518 393.872009,236.390686 399.135712,224.162506 
	C403.132751,214.876984 402.610474,205.349915 397.395630,196.422440 
	C394.346832,191.203094 389.679199,188.565552 383.674469,187.684784 
	C376.736206,186.667084 371.210968,189.262787 366.785583,193.446228 
	C364.894806,191.362350 363.635223,188.799225 361.684052,188.059036 
	C357.089691,186.316132 354.370819,189.039307 354.318085,194.943237 
	C354.174042,211.065155 354.104614,227.187714 354.006165,244.252151 
M140.008347,192.679779 
	C145.911591,205.339813 151.658508,218.077560 157.873734,230.582520 
	C158.895660,232.638641 161.886475,234.684555 164.129059,234.880051 
	C166.174179,235.058350 169.545990,233.251663 170.435425,231.405594 
	C179.303955,212.998581 187.784500,194.404526 196.360352,175.856705 
	C197.907074,172.511444 198.413193,169.238434 194.207565,167.525818 
	C190.401886,165.976044 187.966583,167.716751 186.357742,171.329193 
	C180.138046,185.294708 173.817673,199.215439 167.520569,213.146408 
	C166.691269,214.981033 165.779770,216.778503 164.429352,219.584213 
	C162.731079,216.116302 161.513031,213.787262 160.432404,211.396103 
	C154.412354,198.075027 148.388550,184.755371 142.450745,171.397598 
	C140.738007,167.544632 138.032593,165.842804 134.138840,167.671951 
	C130.159729,169.541168 130.749374,172.857437 132.306656,176.184967 
	C134.771973,181.452759 137.207825,186.734344 140.008347,192.679779 
M450.173798,233.513794 
	C450.524872,232.776688 451.176971,232.041382 451.181396,231.302200 
	C451.239105,221.654694 451.825134,211.947128 450.907257,202.386307 
	C450.506622,198.213654 447.839142,193.387634 444.683960,190.538498 
	C438.788330,185.214844 419.906067,186.724533 414.068115,192.344879 
	C412.871063,193.497314 412.987854,196.014435 412.499023,197.902527 
	C414.375763,198.323639 416.370300,199.367493 418.105225,199.039185 
	C421.987579,198.304520 425.679749,196.414108 429.567749,195.913116 
	C432.156281,195.579575 435.768005,195.983566 437.436707,197.595169 
	C439.385925,199.477722 439.719299,203.033386 440.753754,205.863144 
	C438.868042,206.471008 437.021210,207.361206 435.088440,207.627609 
	C431.144165,208.171234 427.067871,207.986572 423.205017,208.830215 
	C418.931305,209.763580 414.361847,210.468597 411.967804,215.199738 
	C407.388763,224.248871 413.674408,234.547394 424.427551,235.661957 
	C430.445862,236.285751 435.412109,234.314896 439.576111,230.067383 
	C443.425140,236.125839 444.600830,236.551102 450.173798,233.513794 
M520.061523,232.426041 
	C520.962769,232.857407 521.835876,233.365479 522.769653,233.708252 
	C531.959656,237.081818 540.845337,236.189804 549.025635,230.993256 
	C550.532532,230.036011 550.684326,226.945724 551.461609,224.839951 
	C549.465942,224.520081 547.373108,223.664352 545.497009,224.004410 
	C542.594849,224.530457 539.911682,226.230804 537.011292,226.805984 
	C526.287292,228.932556 519.349304,221.560760 521.067078,213.747116 
	C522.408997,213.658890 523.864014,213.486893 525.319824,213.480438 
	C532.484680,213.448685 539.651611,213.359726 546.813843,213.497589 
	C550.762939,213.573578 552.405396,212.304047 552.183167,208.002014 
	C551.305542,191.013168 537.743225,183.917877 523.114868,189.078339 
	C514.309937,192.184464 510.308258,199.263580 509.388336,208.157791 
	C508.383331,217.874237 510.664001,226.363937 520.061523,232.426041 
M465.051971,224.439224 
	C470.878387,236.315887 488.359711,238.371521 499.203766,232.038071 
	C502.511719,230.106049 503.917114,227.237183 501.817719,224.283371 
	C501.056000,223.211609 497.295227,223.933334 495.008698,224.379379 
	C492.765533,224.816925 490.550751,226.823593 488.512238,226.577606 
	C484.763062,226.125198 480.368835,225.468613 477.646942,223.207565 
	C471.971161,218.492813 472.263641,205.208374 477.330688,199.797424 
	C481.860535,194.960144 486.479950,194.761429 495.554047,198.869034 
	C497.756714,199.866135 500.783539,201.657745 501.902252,198.340805 
	C502.542053,196.443893 501.444977,192.895172 499.876190,191.507477 
	C493.715515,186.057877 479.385712,186.003601 472.573975,190.851959 
	C462.234375,198.211319 459.312103,210.487137 465.051971,224.439224 
M221.221191,196.929459 
	C221.216309,195.765030 221.265198,194.597412 221.196442,193.436768 
	C220.992813,189.998962 219.560822,187.804871 215.717422,187.755615 
	C211.644989,187.703445 209.981949,189.922333 209.962814,193.632919 
	C209.904495,204.944504 210.014221,216.257446 209.884827,227.567886 
	C209.837555,231.699966 210.679779,235.018463 215.434952,235.418335 
	C219.248169,235.738998 221.165283,233.135712 221.201385,227.784973 
	C221.268738,217.804321 221.221024,207.822906 221.221191,196.929459 
M212.448303,177.493744 
	C213.762756,177.597778 215.078812,177.806137 216.391357,177.785919 
	C220.048462,177.729553 221.813583,175.495819 222.038147,172.148972 
	C222.278748,168.563263 220.070129,166.175201 216.752731,166.309677 
	C214.318329,166.408356 211.209946,167.637177 209.733688,169.448044 
	C207.527359,172.154449 209.144775,175.047089 212.448303,177.493744 
z"/>
<path fill="#F5F5F5" opacity="1.000000" stroke="none" 
	d="
M339.596497,226.604141 
	C328.996643,239.826019 304.520264,237.337219 292.949036,228.733444 
	C291.356750,227.549484 291.641083,223.841660 291.056610,221.302307 
	C293.463623,221.226929 296.561005,220.148849 298.158752,221.248886 
	C305.249664,226.130890 313.042755,226.861694 321.102875,226.010071 
	C323.722504,225.733276 326.619843,224.458237 328.627167,222.745529 
	C333.235535,218.813522 332.352264,212.631577 326.813599,210.147690 
	C322.749207,208.324982 318.284668,207.396133 314.001343,206.059708 
	C310.193970,204.871780 306.316162,203.864273 302.601624,202.433884 
	C295.918060,199.860229 292.162933,194.914337 291.794525,187.680008 
	C291.439941,180.716934 294.731323,175.435699 300.217743,171.628632 
	C310.483704,164.504959 328.896973,165.337204 338.809479,173.129227 
	C339.589844,173.742661 340.790253,174.402939 340.902374,175.171677 
	C341.189728,177.142258 341.597229,179.538742 340.730621,181.071945 
	C340.189575,182.029190 337.233368,182.334076 335.697723,181.854141 
	C333.217255,181.078918 331.073883,179.290466 328.682281,178.152466 
	C322.871582,175.387497 316.785034,174.883179 310.694824,176.920624 
	C306.564362,178.302460 303.324860,180.747116 303.149658,185.764465 
	C302.975281,190.757919 306.182861,192.930344 310.184784,194.224045 
	C316.979797,196.420685 323.992981,197.997513 330.672424,200.484756 
	C343.179871,205.142136 346.632690,215.344116 339.596497,226.604141 
z"/>
<path fill="#F9F9F9" opacity="1.000000" stroke="none" 
	d="
M268.923401,232.679657 
	C268.239075,231.189102 267.713531,230.060516 267.145935,228.841644 
	C255.259384,238.907928 242.782501,237.561768 235.556717,225.723740 
	C228.177399,213.634171 232.354416,194.883408 243.661041,189.343155 
	C251.091293,185.702316 257.630981,186.896072 267.918884,194.281036 
	C267.918884,188.102081 267.891968,182.567001 267.933228,177.032410 
	C267.948029,175.047699 267.515289,172.715271 268.394562,171.173126 
	C269.379028,169.446442 271.671722,167.325577 273.300415,167.401718 
	C275.233063,167.492096 277.235382,169.566650 278.854828,171.143539 
	C279.489227,171.761261 279.264282,173.361450 279.265625,174.514389 
	C279.286530,192.473618 279.379181,210.434128 279.148956,228.390427 
	C279.121765,230.511536 277.751007,233.803894 276.176605,234.411392 
	C274.271606,235.146469 271.486450,233.600510 268.923401,232.679657 
M263.489441,198.969666 
	C255.799347,194.078339 247.179718,195.795105 245.141052,203.527267 
	C243.823395,208.524811 244.181091,214.348633 245.272507,219.486862 
	C246.328644,224.459045 250.745987,226.609955 256.020050,226.475494 
	C261.310669,226.340637 264.953217,223.886810 266.507935,218.907928 
	C268.622284,212.136871 268.521820,205.502304 263.489441,198.969666 
z"/>
<path fill="#F5F5F5" opacity="1.000000" stroke="none" 
	d="
M354.005920,243.781097 
	C354.104614,227.187714 354.174042,211.065155 354.318085,194.943237 
	C354.370819,189.039307 357.089691,186.316132 361.684052,188.059036 
	C363.635223,188.799225 364.894806,191.362350 366.785583,193.446228 
	C371.210968,189.262787 376.736206,186.667084 383.674469,187.684784 
	C389.679199,188.565552 394.346832,191.203094 397.395630,196.422440 
	C402.610474,205.349915 403.132751,214.876984 399.135712,224.162506 
	C393.872009,236.390686 378.876801,239.543518 368.661713,231.117416 
	C368.063934,230.624313 367.416809,230.191071 365.745789,228.956589 
	C365.745789,234.638687 365.755371,239.346924 365.743500,244.055099 
	C365.727081,250.577423 364.060303,253.039215 359.756775,252.937637 
	C355.746735,252.842972 354.096069,250.349869 354.005920,243.781097 
M385.274933,223.972244 
	C391.181641,217.674301 390.805481,210.405685 388.152954,203.027847 
	C386.448669,198.287445 382.527893,196.135941 377.573975,196.220215 
	C372.628510,196.304337 368.673737,198.521545 367.299896,203.383011 
	C366.284668,206.975510 365.779053,210.921021 366.062469,214.631653 
	C366.857788,225.044479 375.212036,229.315598 385.274933,223.972244 
z"/>
<path fill="#F7F7F7" opacity="1.000000" stroke="none" 
	d="
M139.832245,192.344940 
	C137.207825,186.734344 134.771973,181.452759 132.306656,176.184967 
	C130.749374,172.857437 130.159729,169.541168 134.138840,167.671951 
	C138.032593,165.842804 140.738007,167.544632 142.450745,171.397598 
	C148.388550,184.755371 154.412354,198.075027 160.432404,211.396103 
	C161.513031,213.787262 162.731079,216.116302 164.429352,219.584213 
	C165.779770,216.778503 166.691269,214.981033 167.520569,213.146408 
	C173.817673,199.215439 180.138046,185.294708 186.357742,171.329193 
	C187.966583,167.716751 190.401886,165.976044 194.207565,167.525818 
	C198.413193,169.238434 197.907074,172.511444 196.360352,175.856705 
	C187.784500,194.404526 179.303955,212.998581 170.435425,231.405594 
	C169.545990,233.251663 166.174179,235.058350 164.129059,234.880051 
	C161.886475,234.684555 158.895660,232.638641 157.873734,230.582520 
	C151.658508,218.077560 145.911591,205.339813 139.832245,192.344940 
z"/>
<path fill="#F6F6F6" opacity="1.000000" stroke="none" 
	d="
M449.906311,233.784698 
	C444.600830,236.551102 443.425140,236.125839 439.576111,230.067383 
	C435.412109,234.314896 430.445862,236.285751 424.427551,235.661957 
	C413.674408,234.547394 407.388763,224.248871 411.967804,215.199738 
	C414.361847,210.468597 418.931305,209.763580 423.205017,208.830215 
	C427.067871,207.986572 431.144165,208.171234 435.088440,207.627609 
	C437.021210,207.361206 438.868042,206.471008 440.753754,205.863159 
	C439.719299,203.033386 439.385925,199.477722 437.436707,197.595169 
	C435.768005,195.983566 432.156281,195.579575 429.567749,195.913116 
	C425.679749,196.414108 421.987579,198.304520 418.105225,199.039185 
	C416.370300,199.367493 414.375763,198.323639 412.499023,197.902527 
	C412.987854,196.014435 412.871063,193.497314 414.068115,192.344879 
	C419.906067,186.724533 438.788330,185.214844 444.683960,190.538498 
	C447.839142,193.387634 450.506622,198.213654 450.907257,202.386307 
	C451.825134,211.947128 451.239105,221.654694 451.181396,231.302200 
	C451.176971,232.041382 450.524872,232.776688 449.906311,233.784698 
M438.404175,222.655746 
	C439.167603,219.930222 439.931030,217.204697 440.978516,213.465057 
	C435.532898,213.971176 431.187042,213.874313 427.161011,214.961655 
	C425.164154,215.500961 422.248535,218.393021 422.425354,219.908279 
	C422.706604,222.318314 424.744904,225.475067 426.905060,226.509247 
	C430.977966,228.459152 434.936188,226.755066 438.404175,222.655746 
z"/>
<path fill="#F5F5F5" opacity="1.000000" stroke="none" 
	d="
M519.752075,232.231476 
	C510.664001,226.363937 508.383331,217.874237 509.388336,208.157791 
	C510.308258,199.263580 514.309937,192.184464 523.114868,189.078339 
	C537.743225,183.917877 551.305542,191.013168 552.183167,208.002014 
	C552.405396,212.304047 550.762939,213.573578 546.813843,213.497589 
	C539.651611,213.359726 532.484680,213.448685 525.319824,213.480438 
	C523.864014,213.486893 522.408997,213.658890 521.067078,213.747116 
	C519.349304,221.560760 526.287292,228.932556 537.011292,226.805984 
	C539.911682,226.230804 542.594849,224.530457 545.497009,224.004410 
	C547.373108,223.664352 549.465942,224.520081 551.461609,224.839966 
	C550.684326,226.945724 550.532532,230.036011 549.025635,230.993256 
	C540.845337,236.189804 531.959656,237.081818 522.769653,233.708252 
	C521.835876,233.365479 520.962769,232.857407 519.752075,232.231476 
M536.903076,196.356110 
	C527.394653,193.568924 520.646606,198.279388 521.412048,207.066559 
	C528.284790,207.066559 535.140808,207.066559 542.165771,207.066559 
	C542.300720,202.522263 540.982483,199.166428 536.903076,196.356110 
z"/>
<path fill="#F5998B" opacity="1.000000" stroke="none" 
	d="
M518.937073,140.121109 
	C511.564545,135.725815 504.123840,131.440262 496.834869,126.910545 
	C484.668243,119.349602 471.136902,123.122459 463.010712,134.679535 
	C462.553101,135.330322 461.908905,135.849899 460.721863,136.714096 
	C456.531921,136.656616 452.971680,136.315582 449.411438,135.974564 
	C454.921600,120.197258 466.585999,112.417313 482.726593,111.286942 
	C492.325439,110.614708 500.753479,114.457542 508.572937,119.985641 
	C516.333313,125.471985 524.439575,130.469070 532.581787,136.196106 
	C531.261169,137.329971 529.802429,138.171844 528.234192,138.519455 
	C525.167480,139.199203 522.039612,139.603043 518.937073,140.121109 
z"/>
<path fill="#F5F5F5" opacity="1.000000" stroke="none" 
	d="
M464.896240,224.098923 
	C459.312103,210.487137 462.234375,198.211319 472.573975,190.851959 
	C479.385712,186.003601 493.715515,186.057877 499.876190,191.507477 
	C501.444977,192.895172 502.542053,196.443893 501.902252,198.340805 
	C500.783539,201.657745 497.756714,199.866135 495.554047,198.869034 
	C486.479950,194.761429 481.860535,194.960144 477.330688,199.797424 
	C472.263641,205.208374 471.971161,218.492813 477.646942,223.207565 
	C480.368835,225.468613 484.763062,226.125198 488.512238,226.577606 
	C490.550751,226.823593 492.765533,224.816925 495.008698,224.379379 
	C497.295227,223.933334 501.056000,223.211609 501.817719,224.283371 
	C503.917114,227.237183 502.511719,230.106049 499.203766,232.038071 
	C488.359711,238.371521 470.878387,236.315887 464.896240,224.098923 
z"/>
<path fill="#F91D4D" opacity="1.000000" stroke="none" 
	d="
M463.173798,294.933594 
	C467.789886,298.212402 472.118225,302.049713 477.100922,304.617004 
	C482.355255,307.324280 488.131927,306.466217 493.327301,303.614441 
	C498.965790,300.519440 504.460724,297.162964 510.759399,294.057953 
	C514.585510,294.464355 517.725342,294.473907 520.732788,295.109741 
	C522.276672,295.436157 523.584167,296.880737 524.998535,297.819977 
	C516.025818,303.411957 507.459015,309.846405 497.990051,314.408356 
	C481.761078,322.227142 460.615387,314.810089 452.221130,298.734619 
	C453.195801,297.028442 454.210083,295.401489 455.492523,295.151794 
	C457.973083,294.668884 460.604767,294.962067 463.173798,294.933594 
z"/>
<path fill="#FBFBFB" opacity="1.000000" stroke="none" 
	d="
M221.221191,197.385620 
	C221.221024,207.822906 221.268738,217.804321 221.201385,227.784973 
	C221.165283,233.135712 219.248169,235.738998 215.434952,235.418335 
	C210.679779,235.018463 209.837555,231.699966 209.884827,227.567886 
	C210.014221,216.257446 209.904495,204.944504 209.962814,193.632919 
	C209.981949,189.922333 211.644989,187.703445 215.717422,187.755615 
	C219.560822,187.804871 220.992813,189.998962 221.196442,193.436768 
	C221.265198,194.597412 221.216309,195.765030 221.221191,197.385620 
z"/>
<path fill="#F62B53" opacity="1.000000" stroke="none" 
	d="
M525.347412,297.829620 
	C523.584167,296.880737 522.276672,295.436157 520.732788,295.109741 
	C517.725342,294.473907 514.585510,294.464355 511.099243,294.015747 
	C521.225586,287.243439 531.753235,280.650787 542.972534,274.254883 
	C549.195862,275.002747 554.727356,275.553864 560.258911,276.104980 
	C548.738037,283.349731 537.217163,290.594482 525.347412,297.829620 
z"/>
<path fill="#F6385A" opacity="1.000000" stroke="none" 
	d="
M560.603394,276.073242 
	C554.727356,275.553864 549.195862,275.002747 543.327271,274.217529 
	C552.753784,267.681061 562.517334,261.378662 572.761230,255.321533 
	C578.340149,256.463226 583.438660,257.359650 588.537231,258.256042 
	C582.150085,262.504120 575.787781,266.790283 569.364136,270.982330 
	C566.624756,272.770020 563.757141,274.361145 560.603394,276.073242 
z"/>
<path fill="#F74360" opacity="1.000000" stroke="none" 
	d="
M588.878418,258.251282 
	C583.438660,257.359650 578.340149,256.463226 573.093384,255.197128 
	C582.292847,249.076843 591.640442,243.326218 601.506226,237.880798 
	C603.594604,238.790085 605.130249,239.769073 606.742493,239.917984 
	C609.832092,240.203308 612.965149,240.017136 616.080200,240.026550 
	C608.703796,245.204117 601.343323,250.404648 593.937622,255.540009 
	C592.453125,256.569397 590.796692,257.350769 588.878418,258.251282 
z"/>
<path fill="#F78B84" opacity="1.000000" stroke="none" 
	d="
M449.280151,136.384247 
	C452.971680,136.315582 456.531921,136.656616 460.534058,136.994965 
	C460.228546,145.667923 459.481079,154.343582 458.224854,163.492035 
	C454.555969,163.961639 451.395935,163.958435 448.235870,163.955215 
	C448.540192,154.901459 448.844513,145.847687 449.280151,136.384247 
z"/>
<path fill="#F86973" opacity="1.000000" stroke="none" 
	d="
M613.437805,204.178131 
	C610.361450,200.574295 607.484680,196.771179 604.146667,193.428589 
	C601.392517,190.670563 600.167419,187.768005 602.724121,184.706833 
	C605.453979,181.438400 608.919495,182.298782 612.091431,184.493958 
	C618.754272,189.105103 622.698181,195.654831 624.839478,203.545532 
	C620.717590,204.028549 617.077698,204.103348 613.437805,204.178131 
z"/>
<path fill="#F78B84" opacity="1.000000" stroke="none" 
	d="
M519.165283,140.361572 
	C522.039612,139.603043 525.167480,139.199203 528.234192,138.519455 
	C529.802429,138.171844 531.261169,137.329971 532.872925,136.383118 
	C538.845703,139.474869 544.723633,142.880249 550.578369,146.325104 
	C552.112915,147.228012 553.575500,148.253281 554.843262,149.606110 
	C549.272888,150.708740 543.930420,151.427643 538.587891,152.146545 
	C532.189758,148.298386 525.791687,144.450226 519.165283,140.361572 
z"/>
<path fill="#F88280" opacity="1.000000" stroke="none" 
	d="
M538.760254,152.449768 
	C543.930420,151.427643 549.272888,150.708740 555.056152,149.877502 
	C558.778748,151.640381 562.251831,153.253723 565.286194,155.468201 
	C568.043396,157.480423 569.243103,160.430511 567.083984,163.717606 
	C564.849731,167.119186 561.767822,166.800491 558.790588,165.021027 
	C552.112671,161.029724 545.545166,156.853790 538.760254,152.449768 
z"/>
<path fill="#EB7276" opacity="1.000000" stroke="none" 
	d="
M448.136108,164.417908 
	C451.395935,163.958435 454.555969,163.961639 458.139374,163.947113 
	C458.562714,173.643585 458.562714,183.357803 458.562714,193.416977 
	C455.227417,189.863953 452.086884,186.787552 449.311676,183.410873 
	C448.385284,182.283707 448.080811,180.398026 448.033081,178.842499 
	C447.890442,174.192932 448.015686,169.535172 448.136108,164.417908 
z"/>
<path fill="#F62B53" opacity="1.000000" stroke="none" 
	d="
M463.086548,294.566681 
	C460.604767,294.962067 457.973083,294.668884 455.492523,295.151794 
	C454.210083,295.401489 453.195801,297.028442 452.057617,298.426208 
	C446.888000,292.300140 447.006592,284.624939 447.780212,276.462799 
	C451.701813,276.008270 455.107910,276.010132 458.514008,276.012024 
	C460.009094,282.074615 461.504181,288.137177 463.086548,294.566681 
z"/>
<path fill="#F94E66" opacity="1.000000" stroke="none" 
	d="
M616.413452,239.959717 
	C612.965149,240.017136 609.832092,240.203308 606.742493,239.917984 
	C605.130249,239.769073 603.594604,238.790085 601.856323,237.772980 
	C605.733521,232.769073 609.778870,228.178207 614.466431,223.293274 
	C618.776184,223.007553 622.443787,223.015900 626.111328,223.024261 
	C622.989807,228.647125 619.868225,234.269989 616.413452,239.959717 
z"/>
<path fill="#F65B6C" opacity="1.000000" stroke="none" 
	d="
M626.238770,222.638092 
	C622.443787,223.015900 618.776184,223.007553 614.662109,222.999054 
	C616.505920,216.909439 616.156982,210.898209 613.559143,204.564102 
	C617.077698,204.103348 620.717590,204.028549 624.849365,203.933472 
	C625.682861,210.026077 626.024475,216.139008 626.238770,222.638092 
z"/>
<path fill="#F6385A" opacity="1.000000" stroke="none" 
	d="
M458.616516,275.552979 
	C455.107910,276.010132 451.701813,276.008270 447.872009,276.009491 
	C447.386963,270.315002 447.325684,264.617401 447.781921,258.460205 
	C451.702606,258.003052 455.105743,258.005493 458.508850,258.007935 
	C458.578918,263.703278 458.648987,269.398621 458.616516,275.552979 
z"/>
<path fill="#F74360" opacity="1.000000" stroke="none" 
	d="
M458.610596,257.548584 
	C455.105743,258.005493 451.702606,258.003052 447.876160,258.001678 
	C447.360352,255.517593 447.363495,253.024353 447.154327,250.549072 
	C446.787781,246.212112 446.809418,242.481949 452.683380,241.806915 
	C454.504547,241.597641 456.097107,239.398605 458.712372,237.413803 
	C458.712372,244.442337 458.712372,250.765793 458.610596,257.548584 
z"/>
<path fill="#F5F5F5" opacity="1.000000" stroke="none" 
	d="
M212.130157,177.289581 
	C209.144775,175.047089 207.527359,172.154449 209.733688,169.448044 
	C211.209946,167.637177 214.318329,166.408356 216.752731,166.309677 
	C220.070129,166.175201 222.278748,168.563263 222.038147,172.148972 
	C221.813583,175.495819 220.048462,177.729553 216.391357,177.785919 
	C215.078812,177.806137 213.762756,177.597778 212.130157,177.289581 
z"/>
<path fill="black" opacity="1.000000" stroke="none" 
	d="
M263.759064,199.237213 
	C268.521820,205.502304 268.622284,212.136871 266.507935,218.907928 
	C264.953217,223.886810 261.310669,226.340637 256.020050,226.475494 
	C250.745987,226.609955 246.328644,224.459045 245.272507,219.486862 
	C244.181091,214.348633 243.823395,208.524811 245.141052,203.527267 
	C247.179718,195.795105 255.799347,194.078339 263.759064,199.237213 
z"/>
<path fill="black" opacity="1.000000" stroke="none" 
	d="
M384.973694,224.231857 
	C375.212036,229.315598 366.857788,225.044479 366.062469,214.631653 
	C365.779053,210.921021 366.284668,206.975510 367.299896,203.383011 
	C368.673737,198.521545 372.628510,196.304337 377.573975,196.220215 
	C382.527893,196.135941 386.448669,198.287445 388.152954,203.027847 
	C390.805481,210.405685 391.181641,217.674301 384.973694,224.231857 
z"/>
<path fill="black" opacity="1.000000" stroke="none" 
	d="
M438.167511,222.974030 
	C434.936188,226.755066 430.977966,228.459152 426.905060,226.509247 
	C424.744904,225.475067 422.706604,222.318314 422.425354,219.908279 
	C422.248535,218.393021 425.164154,215.500961 427.161011,214.961655 
	C431.187042,213.874313 435.532898,213.971176 440.978516,213.465057 
	C439.931030,217.204697 439.167603,219.930222 438.167511,222.974030 
z"/>
<path fill="#4F4F4F" opacity="1.000000" stroke="none" 
	d="
M537.229431,196.555817 
	C540.982483,199.166428 542.300720,202.522263 542.165771,207.066559 
	C535.140808,207.066559 528.284790,207.066559 521.412048,207.066559 
	C520.646606,198.279388 527.394653,193.568924 537.229431,196.555817 
z"/>
</svg>